# xmcd
#
# Track frame offsets: 
#        150
#        22755
#        49682
#        76817
#        93869
#        119058
#        134139
#        146656
#        163022
#        179558
#        193548
#        207754
#        223209
#        236175
#        249088
#        264957
#        279689
#        293650
#        308010
#        323714
#        337406
#
# Disc length: 4704 seconds
#
# Revision: 1
# Processed by: cddbd v1.5.2PL0 Copyright (c) Steve Scherf et al.
# Submitted via: ExactAudioCopy v1.1
#
DISCID=3e125e15
DTITLE=Benny Goodman - CD2_Carnegie Hall Concert 1938 Part 2
DYEAR=2006
DGENRE=Jazz
TTITLE0=China Boy
TTITLE1=Stompin' At The Savoy
TTITLE2=Dizzy Spells
TTITLE3=Sing, Sing, Sing - Part 1
TTITLE4=Sing, Sing, Sing - Part 2
TTITLE5=Sing, Sing, Sing - Part 3
TTITLE6=If Dreams Come True
TTITLE7=Big John's Special
TTITLE8=Air Mail Special
TTITLE9=Get Happy
TTITLE10=Jersey Bounce
TTITLE11=When I Grow Too Old To Dream
TTITLE12=You Brought A New Kind Of Love To Me
TTITLE13=Blue Lou
TTITLE14=Jumpin' At The Woodside
TTITLE15=Stompin' At The Savoy
TTITLE16=Sent For You Yesterday And Here You Come Today
TTITLE17=What Can I Say After I Say I'm Sorry
TTITLE18=Rock Rimmon
TTITLE19=You're A Sweetheart
TTITLE20=Somebody Stole My Gal
EXTD=YEAR: 2006
EXTT0=
EXTT1=
EXTT2=
EXTT3=
EXTT4=
EXTT5=
EXTT6=
EXTT7=
EXTT8=
EXTT9=
EXTT10=
EXTT11=
EXTT12=
EXTT13=
EXTT14=
EXTT15=
EXTT16=
EXTT17=
EXTT18=
EXTT19=
EXTT20=
PLAYORDER=
